#!OML:ASF E:\CV Data\Top Level 1\Subject 1\Session 1\player.ASF
:FULLY-SPECIFIED
:DEGREES
713
root 7.79016 17.5236 -10.5152 -142.236 -96.3585 -213.17
lowerback 5.27683 0.785996 2.66763
upperback 0.463646 1.23173 2.87247
thorax -2.48849 0.578738 1.37148
lowerneck -15.9056 14.059 -2.18207
upperneck 16.8336 20.0507 -1.59972
head 7.73222 9.2063 2.0181
rclavicle 2.03754e-014 5.08889e-014
rhumerus -41.3288 33.497 -99.9607
rradius 116.443
rwrist -32.3575
rhand -27.8009 17.5368
rfingers 7.12502
rthumb -1.19359 -12.4396
lclavicle 2.03754e-014 5.08889e-014
lhumerus -30.7554 -55.4126 115.366
lradius 87.9602
lwrist -1.54216
lhand -29.5386 7.53375
lfingers 7.12502
lthumb -2.87183 37.4942
rfemur -11.0708 5.93788 18.6681
rtibia 29.1974
rfoot -21.1694 -4.58729
rtoes -0.590532
lfemur -11.8255 -0.572919 -8.78494
ltibia 24.0438
lfoot -12.7699 -0.183271
ltoes -2.80162
714
root 7.77726 17.5256 -10.5142 -142.794 -96.4904 -212.612
lowerback 5.21979 0.801135 2.67056
upperback 0.410238 1.25225 2.85307
thorax -2.51121 0.589033 1.34877
lowerneck -15.9458 13.9926 -2.18521
upperneck 16.8539 19.9871 -1.71453
head 7.75937 9.16021 1.98273
rclavicle 4.17448e-015 1.11319e-014
rhumerus -41.3061 33.4287 -100.011
rradius 115.502
rwrist -32.6273
rhand -27.6656 17.8608
rfingers 7.12502
rthumb -1.06294 -12.1163
lclavicle 4.17448e-015 1.11319e-014
lhumerus -30.7075 -55.2383 115.207
lradius 87.195
lwrist -1.52843
lhand -29.5647 7.30289
lfingers 7.12502
lthumb -2.89707 37.263
rfemur -10.9221 5.9995 18.7233
rtibia 29.0701
rfoot -21.1633 -4.81807
rtoes -0.60383
lfemur -11.8236 -0.566597 -8.76008
ltibia 24.0474
lfoot -12.7617 -0.320763
ltoes -2.74828
715
root 7.76421 17.5274 -10.5131 -143.391 -96.6198 -212.018
lowerback 5.16209 0.820015 2.65666
upperback 0.350573 1.27715 2.83896
thorax -2.5405 0.601649 1.34061
lowerneck -15.9869 13.9265 -2.19036
upperneck 16.882 19.9274 -1.84068
head 7.79033 9.11402 1.94505
rclavicle 3.18055e-015 -9.54166e-015
rhumerus -41.2615 33.3906 -100.042
rradius 114.454
rwrist -32.9346
rhand -27.5508 18.2317
rfingers 7.12502
rthumb -0.952091 -11.7459
lclavicle 3.18055e-015 -9.54166e-015
lhumerus -30.6414 -55.0507 115.063
lradius 86.3186
lwrist -1.5324
lhand -29.657 7.11668
lfingers 7.12502
lthumb -2.98622 37.0755
rfemur -10.769 6.07347 18.7726
rtibia 28.9419
rfoot -21.1607 -5.0636
rtoes -0.627559
lfemur -11.82 -0.54178 -8.74101
ltibia 24.0505
lfoot -12.7561 -0.485772
ltoes -2.675
716
root 7.75081 17.529 -10.5117 -143.961 -96.7473 -211.457
lowerback 5.11023 0.842687 2.63352
upperback 0.283797 1.30724 2.8326
thorax -2.58082 0.61686 1.34516
lowerneck -16.0331 13.8635 -2.18776
upperneck 16.9302 19.8748 -1.98053
head 7.83119 9.0687 1.90453
rclavicle -1.15295e-014 -5.56597e-015
rhumerus -41.2005 33.3868 -100.061
rradius 113.297
rwrist -33.2622
rhand -27.4705 18.6248
rfingers 7.12502
rthumb -0.874525 -11.3532
lclavicle -1.15295e-014 -5.56597e-015
lhumerus -30.5545 -54.8429 114.926
lradius 85.3287
lwrist -1.56358
lhand -29.7828 6.93806
lfingers 7.12502
lthumb -3.10768 36.8952
rfemur -10.6058 6.15394 18.8212
rtibia 28.8114
rfoot -21.1604 -5.31191
rtoes -0.661256
lfemur -11.8057 -0.52395 -8.72381
ltibia 24.053
lfoot -12.7535 -0.642478
ltoes -2.62596
717
root 7.73737 17.5303 -10.51 -144.504 -96.875 -210.929
lowerback 5.0684 0.867491 2.61011
upperback 0.208853 1.34098 2.82634
thorax -2.63522 0.633781 1.34952
lowerneck -16.0846 13.8062 -2.17729
upperneck 16.9989 19.831 -2.1238
head 7.88091 9.02621 1.86432
rclavicle -3.37934e-015 -4.37326e-015
rhumerus -41.1217 33.4151 -100.084
rradius 112.029
rwrist -33.5975
rhand -27.4342 19.0171
rfingers 7.12502
rthumb -0.839439 -10.961
lclavicle -3.37934e-015 -4.37326e-015
lhumerus -30.4438 -54.6086 114.776
lradius 84.2212
lwrist -1.63533
lhand -29.9401 6.75065
lfingers 7.12502
lthumb -3.25961 36.7055
rfemur -10.4329 6.23763 18.8715
rtibia 28.6786
rfoot -21.1578 -5.56156
rtoes -0.736161
lfemur -11.7812 -0.507667 -8.70521
ltibia 24.0536
lfoot -12.7536 -0.800479
ltoes -2.5749
718
root 7.72378 17.5316 -10.508 -145.014 -96.9992 -210.441
lowerback 5.03342 0.893487 2.58976
upperback 0.12509 1.37713 2.81812
thorax -2.70249 0.651767 1.34982
lowerneck -16.1439 13.7548 -2.16234
upperneck 17.0933 19.7966 -2.26544
head 7.94082 8.98673 1.82682
rclavicle 3.37934e-015 1.43125e-014
rhumerus -41.0319 33.4854 -100.12
rradius 110.654
rwrist -33.9459
rhand -27.4472 19.3913
rfingers 7.12502
rthumb -0.852029 -10.5868
lclavicle 3.37934e-015 1.43125e-014
lhumerus -30.312 -54.3366 114.608
lradius 83.0006
lwrist -1.75036
lhand -30.1795 6.61735
lfingers 7.12502
lthumb -3.49081 36.5685
rfemur -10.2541 6.31896 18.92
rtibia 28.5444
rfoot -21.1537 -5.79866
rtoes -0.815614
lfemur -11.7467 -0.50705 -8.68862
ltibia 24.0521
lfoot -12.7568 -0.93661
ltoes -2.53474
719
root 7.71021 17.5329 -10.506 -145.54 -97.1199 -209.939
lowerback 5.00246 0.923081 2.5698
upperback 0.0325841 1.41858 2.80356
thorax -2.78091 0.672313 1.34285
lowerneck -16.2103 13.7062 -2.1493
upperneck 17.212 19.7675 -2.40005
head 8.00918 8.94864 1.79382
rclavicle 1.2921e-014 -1.35174e-014
rhumerus -40.9304 33.5859 -100.175
rradius 109.175
rwrist -34.3104
rhand -27.5053 19.7274
rfingers 7.12502
rthumb -0.908096 -10.2504
lclavicle 1.2921e-014 -1.35174e-014
lhumerus -30.1635 -54.0315 114.424
lradius 81.6711
lwrist -1.88277
lhand -30.4894 6.54279
lfingers 7.12502
lthumb -3.79011 36.4888
rfemur -10.0724 6.3943 18.9625
rtibia 28.4109
rfoot -21.1477 -6.02322
rtoes -0.89919
lfemur -11.7061 -0.519588 -8.67871
ltibia 24.0481
lfoot -12.7624 -1.05545
ltoes -2.51486
720
root 7.69683 17.5341 -10.504 -146.062 -97.2408 -209.444
lowerback 4.97814 0.956625 2.56366
upperback -0.0678605 1.46651 2.7781
thorax -2.87068 0.695771 1.31624
lowerneck -16.2902 13.6581 -2.13858
upperneck 17.3561 19.74 -2.52225
head 8.08682 8.91051 1.76709
rclavicle -1.87355e-014 1.15295e-014
rhumerus -40.818 33.7134 -100.258
rradius 107.597
rwrist -34.7165
rhand -27.5994 20.0091
rfingers 7.12502
rthumb -0.999039 -9.96834
lclavicle -1.87355e-014 1.15295e-014
lhumerus -30.0033 -53.6942 114.24
lradius 80.2256
lwrist -2.02037
lhand -30.7745 6.456
lfingers 7.12502
lthumb -4.06542 36.397
rfemur -9.88994 6.45812 19.0032
rtibia 28.2807
rfoot -21.14 -6.23514
rtoes -0.992739
lfemur -11.66 -0.548598 -8.67159
ltibia 24.0416
lfoot -12.7676 -1.15238
ltoes -2.51422
721
root 7.68372 17.5351 -10.5018 -146.562 -97.3595 -208.979
lowerback 4.96053 0.993671 2.57756
upperback -0.172258 1.52041 2.73748
thorax -2.96738 0.721744 1.26214
lowerneck -16.383 13.6107 -2.11659
upperneck 17.5188 19.7125 -2.64004
head 8.1737 8.87188 1.742
rclavicle 3.07619e-014 2.66371e-014
rhumerus -40.6905 33.867 -100.377
rradius 105.924
rwrist -35.1712
rhand -27.7016 20.2175
rfingers 7.12502
rthumb -1.09769 -9.75938
lclavicle 3.07619e-014 2.66371e-014
lhumerus -29.8213 -53.3284 114.038
lradius 78.6678
lwrist -2.1411
lhand -30.9601 6.35127
lfingers 7.12502
lthumb -4.24462 36.2887
rfemur -9.7052 6.51086 19.0431
rtibia 28.1562
rfoot -21.1352 -6.42663
rtoes -1.05357
lfemur -11.6047 -0.589626 -8.66609
ltibia 24.0322
lfoot -12.7723 -1.22998
ltoes -2.51983
722
root 7.67086 17.5359 -10.4993 -147.059 -97.4747 -208.523
lowerback 4.94683 1.03126 2.60219
upperback -0.279913 1.57571 2.68967
thorax -3.06908 0.748068 1.19436
lowerneck -16.488 13.5669 -2.09146
upperneck 17.7 19.6926 -2.76221
head 8.26992 8.83474 1.71772
rclavicle -6.11263e-015 -1.78906e-014
rhumerus -40.5515 34.0629 -100.529
rradius 104.162
rwrist -35.693
rhand -27.8161 20.3666
rfingers 7.12502
rthumb -1.20827 -9.60975
lclavicle -6.11263e-015 -1.78906e-014
lhumerus -29.6046 -52.9176 113.815
lradius 76.9994
lwrist -2.27349
lhand -30.895 6.10119
lfingers 7.12502
lthumb -4.18172 36.0399
rfemur -9.51913 6.55375 19.0791
rtibia 28.0385
rfoot -21.1355 -6.59894
rtoes -1.07366
lfemur -11.5411 -0.635462 -8.66607
ltibia 24.0199
lfoot -12.7748 -1.28952
ltoes -2.55844
723
root 7.65795 17.5365 -10.4966 -147.579 -97.5809 -208.05
lowerback 4.93493 1.06819 2.63069
upperback -0.390291 1.63031 2.6336
thorax -3.17415 0.773784 1.11582
lowerneck -16.5952 13.5297 -2.06081
upperneck 17.8879 19.6835 -2.89312
head 8.37066 8.80116 1.69165
rclavicle 3.8763e-015 -1.19271e-014
rhumerus -40.405 34.3056 -100.719
rradius 102.314
rwrist -36.2864
rhand -27.9329 20.4615
rfingers 7.12502
rthumb -1.32115 -9.51419
lclavicle 3.8763e-015 -1.19271e-014
lhumerus -29.3509 -52.4452 113.58
lradius 75.2076
lwrist -2.4339
lhand -30.5776 5.65478
lfingers 7.12502
lthumb -3.87525 35.5993
rfemur -9.3305 6.58808 19.1046
rtibia 27.9291
rfoot -21.143 -6.75305
rtoes -1.06393
lfemur -11.4652 -0.681856 -8.67741
ltibia 24.0032
lfoot -12.7758 -1.34006
ltoes -2.57675
724
root 7.64453 17.5371 -10.4936 -148.142 -97.673 -207.536
lowerback 4.91608 1.10702 2.64988
upperback -0.503268 1.68652 2.57585
thorax -3.27809 0.800331 1.04068
lowerneck -16.7044 13.4985 -2.02919
upperneck 18.0791 19.6867 -3.03918
head 8.47509 8.77101 1.66245
rclavicle -9.19379e-015 -1.78906e-014
rhumerus -40.2534 34.5993 -100.937
rradius 100.39
rwrist -36.9525
rhand -28.0523 20.5015
rfingers 7.12502
rthumb -1.43641 -9.47342
lclavicle -9.19379e-015 -1.78906e-014
lhumerus -29.0689 -51.918 113.355
lradius 73.2965
lwrist -2.61584
lhand -30.1318 5.09375
lfingers 7.12502
lthumb -3.4447 35.0457
rfemur -9.14342 6.61648 19.1113
rtibia 27.8291
rfoot -21.1613 -6.88455
rtoes -1.00212
lfemur -11.3785 -0.730878 -8.7077
ltibia 23.9814
lfoot -12.776 -1.37452
ltoes -2.60471
725
root 7.63067 17.5376 -10.4906 -148.781 -97.7556 -206.948
lowerback 4.89198 1.14735 2.65206
upperback -0.617034 1.74344 2.51896
thorax -3.38031 0.827448 0.975922
lowerneck -16.8156 13.4734 -2.00156
upperneck 18.2706 19.7033 -3.20004
head 8.58171 8.74458 1.63081
rclavicle -1.49089e-015 7.55382e-015
rhumerus -40.0946 34.9415 -101.179
rradius 98.3978
rwrist -37.6858
rhand -28.1811 20.4932
rfingers 7.12502
rthumb -1.5608 -9.48084
lclavicle -1.49089e-015 7.55382e-015
lhumerus -28.7637 -51.3557 113.139
lradius 71.2799
lwrist -2.79671
lhand -29.5679 4.36061
lfingers 7.12502
lthumb -2.90019 34.3206
rfemur -8.95574 6.63849 19.1004
rtibia 27.7395
rfoot -21.1872 -7.00548
rtoes -0.939567
lfemur -11.2815 -0.771281 -8.75625
ltibia 23.9535
lfoot -12.7774 -1.4129
ltoes -2.65048
726
root 7.61639 17.5379 -10.4873 -149.452 -97.8245 -206.327
lowerback 4.85656 1.19327 2.64435
upperback -0.730516 1.80654 2.46264
thorax -3.47608 0.857798 0.916973
lowerneck -16.9287 13.4542 -1.97159
upperneck 18.4597 19.7332 -3.38318
head 8.69119 8.72143 1.59358
rclavicle 8.05078e-015 1.90833e-014
rhumerus -39.9242 35.3217 -101.437
rradius 96.3482
rwrist -38.4618
rhand -28.3092 20.411
rfingers 7.12502
rthumb -1.68458 -9.56213
lclavicle 8.05078e-015 1.90833e-014
lhumerus -28.4508 -50.798 112.934
lradius 69.1886
lwrist -2.93882
lhand -29.0833 3.63181
lfingers 7.12502
lthumb -2.43219 33.5977
rfemur -8.77469 6.65569 19.0738
rtibia 27.6606
rfoot -21.2167 -7.11651
rtoes -0.902656
lfemur -11.1787 -0.804813 -8.81974
ltibia 23.9216
lfoot -12.7802 -1.45107
ltoes -2.68563
